<svg version="1.1" id="Layer_1" xmlns="http://www.w3.org/2000/svg" xmlns:xlink="http://www.w3.org/1999/xlink" x="0px" y="0px"
	 width="100%" viewBox="0 0 384 384" enable-background="new 0 0 384 384" xml:space="preserve">
<path fill="#000000" opacity="1.000000" stroke="none" 
	d="
M212.000000,385.000000 
	C141.333344,385.000000 71.166695,385.000000 1.000028,385.000000 
	C1.000019,257.000031 1.000019,129.000076 1.000009,1.000080 
	C128.999939,1.000053 256.999878,1.000053 384.999878,1.000027 
	C384.999908,128.999924 384.999908,256.999847 384.999939,384.999878 
	C327.500000,385.000000 270.000000,385.000000 212.000000,385.000000 
M20.149189,203.641754 
	C20.985096,210.493057 21.625288,217.375183 22.697777,224.189240 
	C24.910139,238.245514 30.578724,251.115875 35.897476,264.221313 
	C40.198856,274.819946 46.223896,284.196289 52.704830,293.238098 
	C58.896450,301.876251 66.202972,309.873108 73.905518,317.223297 
	C80.770164,323.773956 88.532860,329.529938 96.470528,334.771454 
	C105.737579,340.890717 115.452286,346.402924 125.313110,351.523071 
	C130.433350,354.181671 136.440521,355.072571 141.780319,357.379395 
	C156.188934,363.604095 171.724792,364.509796 186.849350,365.564240 
	C201.065918,366.555359 215.611450,364.638092 229.864166,362.832092 
	C246.823608,360.683136 262.521332,353.732330 277.711456,346.380554 
	C287.637085,341.576691 296.451660,334.380951 305.476776,327.859283 
	C309.173584,325.187927 312.118378,321.474091 315.396667,318.225769 
	C321.151001,312.524139 327.236847,307.110809 332.548126,301.022186 
	C337.277832,295.600220 341.252167,289.500366 345.360687,283.561890 
	C348.348969,279.242676 351.858124,275.009674 353.631317,270.185486 
	C356.603943,262.098053 361.615570,254.909485 362.449280,245.751740 
	C363.051422,239.137573 367.606079,232.963974 368.823273,226.306015 
	C370.616699,216.496170 371.900970,206.419373 371.781830,196.475693 
	C371.615570,182.600952 370.463287,168.679703 368.719360,154.906693 
	C367.843231,147.987396 364.495575,141.413437 362.677368,134.573837 
	C359.531158,122.738625 354.710785,111.630043 348.036621,101.446358 
	C342.499603,92.997856 336.200134,85.050316 330.272095,76.856499 
	C322.257935,65.779243 312.543335,56.306946 301.203491,48.860317 
	C290.364410,41.742512 279.025787,35.268467 267.441223,29.436016 
	C256.079407,23.715687 243.633591,20.709667 231.190445,18.171680 
	C224.235443,16.753088 217.153900,15.757096 210.079666,15.180370 
	C203.896332,14.676273 197.639328,14.870704 191.422287,15.035575 
	C183.258362,15.252072 174.869400,14.650890 166.987534,16.328787 
	C147.060547,20.570850 127.301292,25.874935 109.769508,36.813980 
	C99.457916,43.247948 88.869484,49.604275 79.818909,57.596096 
	C69.612785,66.608276 59.591484,76.147598 52.398010,88.086319 
	C46.815514,97.351364 40.092056,106.025978 35.399113,115.701874 
	C30.965019,124.844070 27.887815,134.789658 25.372946,144.676712 
	C22.837851,154.643326 21.728928,164.972687 19.173679,175.421402 
	C19.107967,183.840317 19.014297,192.259262 19.027985,200.678055 
	C19.029118,201.374756 19.757353,202.070267 20.149189,203.641754 
z"/>
<path fill="#BD0202" opacity="1.000000" stroke="none" 
	d="
M19.995144,175.143112 
	C21.728928,164.972687 22.837851,154.643326 25.372946,144.676712 
	C27.887815,134.789658 30.965019,124.844070 35.399113,115.701874 
	C40.092056,106.025978 46.815514,97.351364 52.398010,88.086319 
	C59.591484,76.147598 69.612785,66.608276 79.818909,57.596096 
	C88.869484,49.604275 99.457916,43.247948 109.769508,36.813980 
	C127.301292,25.874935 147.060547,20.570850 166.987534,16.328787 
	C174.869400,14.650890 183.258362,15.252072 191.422287,15.035575 
	C197.639328,14.870704 203.896332,14.676273 210.079666,15.180370 
	C217.153900,15.757096 224.235443,16.753088 231.190445,18.171680 
	C243.633591,20.709667 256.079407,23.715687 267.441223,29.436016 
	C279.025787,35.268467 290.364410,41.742512 301.203491,48.860317 
	C312.543335,56.306946 322.257935,65.779243 330.272095,76.856499 
	C336.200134,85.050316 342.499603,92.997856 348.036621,101.446358 
	C354.710785,111.630043 359.531158,122.738625 362.677368,134.573837 
	C364.495575,141.413437 367.843231,147.987396 368.719360,154.906693 
	C370.463287,168.679703 371.615570,182.600952 371.781830,196.475693 
	C371.900970,206.419373 370.616699,216.496170 368.823273,226.306015 
	C367.606079,232.963974 363.051422,239.137573 362.449280,245.751740 
	C361.615570,254.909485 356.603943,262.098053 353.631317,270.185486 
	C351.858124,275.009674 348.348969,279.242676 345.360687,283.561890 
	C341.252167,289.500366 337.277832,295.600220 332.548126,301.022186 
	C327.236847,307.110809 321.151001,312.524139 315.396667,318.225769 
	C312.118378,321.474091 309.173584,325.187927 305.476776,327.859283 
	C296.451660,334.380951 287.637085,341.576691 277.711456,346.380554 
	C262.521332,353.732330 246.823608,360.683136 229.864166,362.832092 
	C215.611450,364.638092 201.065918,366.555359 186.849350,365.564240 
	C171.724792,364.509796 156.188934,363.604095 141.780319,357.379395 
	C136.440521,355.072571 130.433350,354.181671 125.313110,351.523071 
	C115.452286,346.402924 105.737579,340.890717 96.470528,334.771454 
	C88.532860,329.529938 80.770164,323.773956 73.905518,317.223297 
	C66.202972,309.873108 58.896450,301.876251 52.704830,293.238098 
	C46.223896,284.196289 40.198856,274.819946 35.897476,264.221313 
	C30.578724,251.115875 24.910139,238.245514 22.697777,224.189240 
	C21.625288,217.375183 20.985096,210.493057 20.308346,202.890442 
	C20.790163,201.593933 21.388306,201.051529 21.393892,200.503067 
	C21.469906,193.038742 21.519073,185.572769 21.412052,178.109543 
	C21.397779,177.114166 20.489443,176.131607 19.995144,175.143112 
M246.857239,205.341202 
	C257.883179,198.565628 268.909119,191.790054 280.746033,184.516113 
	C236.196030,160.849503 192.527740,137.651321 148.461151,114.241531 
	C148.461151,165.155365 148.461151,214.953125 148.461151,265.563293 
	C181.568710,245.308563 213.908508,225.523529 246.857239,205.341202 
z"/>
<path fill="#EE9092" opacity="1.000000" stroke="none" 
	d="
M19.584412,175.282257 
	C20.489443,176.131607 21.397779,177.114166 21.412052,178.109543 
	C21.519073,185.572769 21.469906,193.038742 21.393892,200.503067 
	C21.388306,201.051529 20.790163,201.593933 20.307629,202.452744 
	C19.757353,202.070267 19.029118,201.374756 19.027985,200.678055 
	C19.014297,192.259262 19.107967,183.840317 19.584412,175.282257 
z"/>
<path fill="#04C7FC" opacity="1.000000" stroke="none" 
	d="
M246.552765,205.539856 
	C213.908508,225.523529 181.568710,245.308563 148.461151,265.563293 
	C148.461151,214.953125 148.461151,165.155365 148.461151,114.241531 
	C192.527740,137.651321 236.196030,160.849503 280.746033,184.516113 
	C268.909119,191.790054 257.883179,198.565628 246.552765,205.539856 
z"/>
</svg>